<svg width="300" height="300" viewBox="0 0 300 300" fill="none" xmlns="http://www.w3.org/2000/svg">
<path d="M150 0C135.244 0 125.775 11.1 120.525 21.5813C115.331 32.406 112.591 44.2439 112.5 56.25V125.456L75 144.206V140.625C75 138.139 74.0123 135.754 72.2541 133.996C70.496 132.238 68.1114 131.25 65.625 131.25H46.875C44.3886 131.25 42.004 132.238 40.2459 133.996C38.4877 135.754 37.5 138.139 37.5 140.625V162.956L15.5625 173.925C10.8869 176.259 6.95407 179.85 4.20522 184.295C1.45636 188.739 0.000176532 193.862 0 199.088L0 225C0.000626437 226.361 0.297519 227.705 0.870054 228.94C1.44259 230.174 2.27704 231.27 3.31543 232.149C4.35383 233.029 5.57128 233.672 6.8832 234.033C8.19512 234.395 9.57006 234.467 10.9125 234.244L41.4938 229.144L47.3625 246.712C47.9876 248.575 49.1819 250.193 50.7765 251.34C52.3712 252.487 54.2858 253.104 56.25 253.104C58.2142 253.104 60.1288 252.487 61.7235 251.34C63.3181 250.193 64.5124 248.575 65.1375 246.712L72.7312 223.95L114.169 217.031L121.2 259.275L96.4875 283.987C95.173 285.299 94.2774 286.971 93.9143 288.791C93.5512 290.612 93.7368 292.5 94.4478 294.215C95.1587 295.93 96.363 297.395 97.9078 298.425C99.4526 299.455 101.268 300.003 103.125 300H196.875C198.732 300.003 200.547 299.455 202.092 298.425C203.637 297.395 204.841 295.93 205.552 294.215C206.263 292.5 206.449 290.612 206.086 288.791C205.723 286.971 204.827 285.299 203.513 283.987L178.8 259.275L185.831 217.031L227.269 223.95L234.863 246.712C235.488 248.575 236.682 250.193 238.277 251.34C239.871 252.487 241.786 253.104 243.75 253.104C245.714 253.104 247.629 252.487 249.223 251.34C250.818 250.193 252.012 248.575 252.637 246.712L258.506 229.144L289.069 234.244C290.413 234.47 291.79 234.4 293.104 234.04C294.418 233.68 295.638 233.037 296.679 232.157C297.719 231.278 298.555 230.181 299.129 228.945C299.703 227.709 300 226.363 300 225V199.088C300 193.862 298.544 188.739 295.795 184.295C293.046 179.85 289.113 176.259 284.438 173.925L262.5 162.956V140.625C262.5 138.139 261.512 135.754 259.754 133.996C257.996 132.238 255.611 131.25 253.125 131.25H234.375C231.889 131.25 229.504 132.238 227.746 133.996C225.988 135.754 225 138.139 225 140.625V144.206L187.5 125.456V56.25C187.5 45.6 184.875 32.4188 179.475 21.5813C174.225 11.0813 164.756 0 150 0ZM131.25 56.25C131.25 48.15 133.313 37.8937 137.288 29.9812C141.413 21.7312 146.006 18.75 150 18.75C153.994 18.75 158.588 21.7125 162.713 29.9812C166.669 37.875 168.75 48.1688 168.75 56.25V131.25C168.75 132.99 169.234 134.695 170.148 136.175C171.062 137.655 172.37 138.852 173.925 139.631L276.075 190.706C277.63 191.486 278.938 192.682 279.852 194.162C280.766 195.643 281.25 197.348 281.25 199.088V213.937L179.662 197.006C177.214 196.599 174.704 197.18 172.683 198.621C170.662 200.062 169.294 202.246 168.881 204.694L159.506 260.944C159.258 262.42 159.367 263.934 159.823 265.36C160.28 266.785 161.071 268.08 162.131 269.138L174.244 281.25H125.756L137.888 269.138C138.945 268.082 139.734 266.79 140.191 265.368C140.647 263.946 140.758 262.436 140.512 260.963L131.137 204.713C130.935 203.497 130.495 202.333 129.843 201.288C129.19 200.243 128.338 199.336 127.335 198.62C126.332 197.905 125.198 197.394 123.997 197.117C122.796 196.84 121.553 196.802 120.338 197.006L18.75 213.937V199.088C18.7501 197.348 19.2341 195.643 20.1481 194.162C21.062 192.682 22.3697 191.486 23.925 190.706L126.075 139.631C127.63 138.852 128.938 137.655 129.852 136.175C130.766 134.695 131.25 132.99 131.25 131.25V56.25Z" fill="black"/>
</svg>
