<svg width="48" height="48" viewBox="0 0 48 48" fill="none" xmlns="http://www.w3.org/2000/svg">
<rect width="48" height="48" rx="24" fill="#F1CD0A"/>
<path d="M24 8C22.426 8 21.416 9.184 20.856 10.302C20.302 11.4566 20.0097 12.7194 20 14V21.382L16 23.382V23C16 22.7348 15.8946 22.4804 15.7071 22.2929C15.5196 22.1054 15.2652 22 15 22H13C12.7348 22 12.4804 22.1054 12.2929 22.2929C12.1054 22.4804 12 22.7348 12 23V25.382L9.66 26.552C9.16127 26.801 8.74177 27.184 8.44856 27.6581C8.15535 28.1322 8.00002 28.6786 8 29.236V32C8.00007 32.1452 8.03174 32.2886 8.09281 32.4203C8.15388 32.5519 8.24288 32.6688 8.35365 32.7626C8.46441 32.8564 8.59427 32.925 8.73421 32.9636C8.87415 33.0022 9.02081 33.0098 9.164 32.986L12.426 32.442L13.052 34.316C13.1187 34.5146 13.2461 34.6873 13.4162 34.8096C13.5863 34.9319 13.7905 34.9977 14 34.9977C14.2095 34.9977 14.4137 34.9319 14.5838 34.8096C14.7539 34.6873 14.8813 34.5146 14.948 34.316L15.758 31.888L20.178 31.15L20.928 35.656L18.292 38.292C18.1518 38.4319 18.0563 38.6102 18.0175 38.8044C17.9788 38.9986 17.9986 39.2 18.0744 39.3829C18.1503 39.5659 18.2787 39.7222 18.4435 39.832C18.6083 39.9419 18.802 40.0004 19 40H29C29.198 40.0004 29.3917 39.9419 29.5565 39.832C29.7213 39.7222 29.8497 39.5659 29.9256 39.3829C30.0014 39.2 30.0212 38.9986 29.9825 38.8044C29.9437 38.6102 29.8482 38.4319 29.708 38.292L27.072 35.656L27.822 31.15L32.242 31.888L33.052 34.316C33.1187 34.5146 33.2461 34.6873 33.4162 34.8096C33.5863 34.9319 33.7905 34.9977 34 34.9977C34.2095 34.9977 34.4137 34.9319 34.5838 34.8096C34.7539 34.6873 34.8813 34.5146 34.948 34.316L35.574 32.442L38.834 32.986C38.9773 33.0101 39.1242 33.0027 39.2644 32.9643C39.4046 32.9258 39.5347 32.8573 39.6457 32.7635C39.7567 32.6696 39.8459 32.5527 39.9071 32.4208C39.9683 32.289 40 32.1454 40 32V29.236C40 28.6786 39.8447 28.1322 39.5514 27.6581C39.2582 27.184 38.8387 26.801 38.34 26.552L36 25.382V23C36 22.7348 35.8946 22.4804 35.7071 22.2929C35.5196 22.1054 35.2652 22 35 22H33C32.7348 22 32.4804 22.1054 32.2929 22.2929C32.1054 22.4804 32 22.7348 32 23V23.382L28 21.382V14C28 12.864 27.72 11.458 27.144 10.302C26.584 9.182 25.574 8 24 8ZM22 14C22 13.136 22.22 12.042 22.644 11.198C23.084 10.318 23.574 10 24 10C24.426 10 24.916 10.316 25.356 11.198C25.778 12.04 26 13.138 26 14V22C26 22.1856 26.0516 22.3675 26.1491 22.5253C26.2466 22.6832 26.3861 22.8109 26.552 22.894L37.448 28.342C37.6139 28.4251 37.7534 28.5528 37.8509 28.7107C37.9484 28.8685 38 29.0504 38 29.236V30.82L27.164 29.014C26.9028 28.9706 26.6351 29.0325 26.4195 29.1863C26.2039 29.34 26.0581 29.5729 26.014 29.834L25.014 35.834C24.9875 35.9915 24.9991 36.153 25.0478 36.305C25.0965 36.4571 25.1809 36.5953 25.294 36.708L26.586 38H21.414L22.708 36.708C22.8208 36.5955 22.905 36.4576 22.9537 36.3059C23.0024 36.1543 23.0142 35.9931 22.988 35.836L21.988 29.836C21.9664 29.7063 21.9195 29.5822 21.8499 29.4707C21.7803 29.3592 21.6894 29.2625 21.5824 29.1862C21.4754 29.1098 21.3544 29.0553 21.2263 29.0258C21.0983 28.9962 20.9656 28.9922 20.836 29.014L10 30.82V29.236C10 29.0504 10.0516 28.8685 10.1491 28.7107C10.2466 28.5528 10.3861 28.4251 10.552 28.342L21.448 22.894C21.6139 22.8109 21.7534 22.6832 21.8509 22.5253C21.9484 22.3675 22 22.1856 22 22V14Z" fill="black"/>
</svg>
