<svg width="288" height="288" viewBox="0 0 288 288" fill="none" xmlns="http://www.w3.org/2000/svg">
    <path
        d="M175 288V263C199.375 263 220.054 254.512 237.037 237.537C254.021 220.562 262.508 199.883 262.5 175.5H287.5C287.5 191.125 284.533 205.762 278.6 219.412C272.667 233.062 264.646 244.937 254.538 255.037C244.429 265.137 232.554 273.158 218.913 279.1C205.271 285.042 190.633 288.008 175 288ZM175 238V213C185.417 213 194.271 209.354 201.562 202.062C208.854 194.771 212.5 185.917 212.5 175.5H237.5C237.5 192.792 231.404 207.533 219.213 219.725C207.021 231.917 192.283 238.008 175 238ZM69.375 280.188C66.25 280.188 63.125 279.562 60 278.312C56.875 277.062 54.0625 275.292 51.5625 273L7.1875 228.625C4.89583 226.125 3.125 223.312 1.875 220.187C0.625 217.062 0 213.937 0 210.812C0 207.479 0.625 204.3 1.875 201.275C3.125 198.25 4.89583 195.596 7.1875 193.313L46.875 153.625C51.6667 148.833 57.6042 146.388 64.6875 146.288C71.7708 146.188 77.7083 148.529 82.5 153.313L98.125 168.938L106.875 160.188L91.25 144.563C86.4583 139.771 84.0625 133.938 84.0625 127.062C84.0625 120.187 86.4583 114.354 91.25 109.563L109.063 91.75C113.854 86.9583 119.742 84.5625 126.725 84.5625C133.708 84.5625 139.592 86.9583 144.375 91.75L160 107.375L168.75 98.625L153.125 83C148.333 78.2083 145.938 72.325 145.938 65.35C145.938 58.375 148.333 52.4875 153.125 47.6875L192.813 8C195.313 5.5 198.125 3.625 201.25 2.375C204.375 1.125 207.5 0.5 210.625 0.5C213.75 0.5 216.825 1.125 219.85 2.375C222.875 3.625 225.633 5.5 228.125 8L272.5 52.375C275 54.6667 276.825 57.325 277.975 60.35C279.125 63.375 279.696 66.55 279.688 69.875C279.688 73 279.117 76.125 277.975 79.25C276.833 82.375 275.008 85.1875 272.5 87.6875L232.812 127.375C228.021 132.167 222.137 134.563 215.162 134.563C208.187 134.563 202.3 132.167 197.5 127.375L181.875 111.75L173.125 120.5L188.75 136.125C193.542 140.917 195.888 146.804 195.788 153.788C195.688 160.771 193.237 166.654 188.437 171.438L170.938 188.937C166.146 193.729 160.262 196.125 153.287 196.125C146.312 196.125 140.425 193.729 135.625 188.937L120 173.312L111.25 182.063L126.875 197.688C131.667 202.479 134.013 208.417 133.913 215.5C133.813 222.583 131.363 228.521 126.562 233.312L86.875 273C84.5833 275.292 81.925 277.062 78.9 278.312C75.875 279.562 72.7 280.188 69.375 280.188ZM69.375 255.5L82.5 242.375L38.125 198L25 211.125L69.375 255.5ZM95.9375 228.937L109.063 215.812L64.6875 171.438L51.5625 184.563L95.9375 228.937ZM215.313 109.563L228.437 96.4375L184.063 52.0625L170.938 65.1875L215.313 109.563ZM241.875 83L255 69.875L210.625 25.5L197.5 38.625L241.875 83Z"
        fill="yellow" />
</svg>