<svg width="48" height="48" viewBox="0 0 48 48" fill="none" xmlns="http://www.w3.org/2000/svg">
<rect width="48" height="48" rx="24" fill="#D82CF4"/>
<path d="M27.4783 40V37.2174C30.1913 37.2174 32.493 36.2727 34.3833 34.3833C36.2736 32.4939 37.2183 30.1922 37.2174 27.4783H40C40 29.2174 39.6698 30.8466 39.0094 32.3659C38.349 33.8852 37.4562 35.207 36.3311 36.3311C35.206 37.4553 33.8843 38.3481 32.3659 39.0094C30.8475 39.6707 29.2183 40.0009 27.4783 40ZM27.4783 34.4348V31.6522C28.6377 31.6522 29.6232 31.2464 30.4348 30.4348C31.2464 29.6232 31.6522 28.6377 31.6522 27.4783H34.4348C34.4348 29.4029 33.7563 31.0437 32.3993 32.4007C31.0423 33.7577 29.402 34.4357 27.4783 34.4348ZM15.7217 39.1304C15.3739 39.1304 15.0261 39.0609 14.6783 38.9217C14.3304 38.7826 14.0174 38.5855 13.7391 38.3304L8.8 33.3913C8.54493 33.113 8.34783 32.8 8.2087 32.4522C8.06957 32.1043 8 31.7565 8 31.4087C8 31.0377 8.06957 30.6838 8.2087 30.3471C8.34783 30.0104 8.54493 29.715 8.8 29.4609L13.2174 25.0435C13.7507 24.5101 14.4116 24.2379 15.2 24.2268C15.9884 24.2157 16.6493 24.4763 17.1826 25.0087L18.9217 26.7478L19.8957 25.7739L18.1565 24.0348C17.6232 23.5014 17.3565 22.8522 17.3565 22.087C17.3565 21.3217 17.6232 20.6725 18.1565 20.1391L20.1391 18.1565C20.6725 17.6232 21.3278 17.3565 22.105 17.3565C22.8823 17.3565 23.5372 17.6232 24.0696 18.1565L25.8087 19.8957L26.7826 18.9217L25.0435 17.1826C24.5101 16.6493 24.2435 15.9944 24.2435 15.2181C24.2435 14.4417 24.5101 13.7864 25.0435 13.2522L29.4609 8.83478C29.7391 8.55652 30.0522 8.34783 30.4 8.2087C30.7478 8.06957 31.0956 8 31.4435 8C31.7913 8 32.1336 8.06957 32.4703 8.2087C32.807 8.34783 33.114 8.55652 33.3913 8.83478L38.3304 13.7739C38.6087 14.029 38.8118 14.3249 38.9398 14.6616C39.0678 14.9983 39.1314 15.3517 39.1304 15.7217C39.1304 16.0696 39.0669 16.4174 38.9398 16.7652C38.8128 17.113 38.6096 17.4261 38.3304 17.7043L33.913 22.1217C33.3797 22.6551 32.7249 22.9217 31.9485 22.9217C31.1722 22.9217 30.5169 22.6551 29.9826 22.1217L28.2435 20.3826L27.2696 21.3565L29.0087 23.0957C29.542 23.629 29.8031 24.2843 29.792 25.0616C29.7809 25.8388 29.5082 26.4937 28.9739 27.0261L27.0261 28.9739C26.4928 29.5072 25.8379 29.7739 25.0616 29.7739C24.2852 29.7739 23.6299 29.5072 23.0957 28.9739L21.3565 27.2348L20.3826 28.2087L22.1217 29.9478C22.6551 30.4812 22.9162 31.142 22.905 31.9304C22.8939 32.7188 22.6212 33.3797 22.087 33.913L17.6696 38.3304C17.4145 38.5855 17.1186 38.7826 16.7819 38.9217C16.4452 39.0609 16.0918 39.1304 15.7217 39.1304ZM15.7217 36.3826L17.1826 34.9217L12.2435 29.9826L10.7826 31.4435L15.7217 36.3826ZM18.6783 33.4261L20.1391 31.9652L15.2 27.0261L13.7391 28.487L18.6783 33.4261ZM31.9652 20.1391L33.4261 18.6783L28.487 13.7391L27.0261 15.2L31.9652 20.1391ZM34.9217 17.1826L36.3826 15.7217L31.4435 10.7826L29.9826 12.2435L34.9217 17.1826Z" fill="black"/>
</svg>
