<svg width="301" height="301" viewBox="0 0 301 301" fill="none" xmlns="http://www.w3.org/2000/svg">
<path d="M93.985 9.9985C93.985 7.50587 94.9752 5.11532 96.7377 3.35276C98.5003 1.5902 100.891 0.600006 103.383 0.600006H197.368C199.861 0.600006 202.252 1.5902 204.014 3.35276C205.777 5.11532 206.767 7.50587 206.767 9.9985V56.2391H253.759C256.252 56.2391 258.643 57.2293 260.405 58.9919C262.168 60.7544 263.158 63.145 263.158 65.6376V142.029L293.872 150.581C295.196 150.949 296.423 151.602 297.467 152.495C298.511 153.389 299.346 154.5 299.914 155.75C300.482 157.001 300.769 158.362 300.755 159.735C300.74 161.109 300.425 162.463 299.831 163.702L265.526 234.905C262.313 231.276 258.219 228.538 253.638 226.954C249.057 225.37 244.146 224.995 239.377 225.864C234.609 226.734 230.146 228.818 226.419 231.917C222.692 235.015 219.827 239.022 218.102 243.551L217.914 243.983C216.21 247.805 214.024 251.393 211.41 254.66C206.541 260.675 202.049 263.006 197.5 263.006C192.989 263.006 188.44 260.638 183.477 254.547C180.728 251.114 178.44 247.335 176.673 243.307C174.608 237.946 170.955 233.343 166.203 230.116C161.45 226.888 155.825 225.189 150.081 225.247C144.336 225.304 138.746 227.114 134.059 230.436C129.372 233.758 125.811 238.432 123.853 243.833C122.133 247.687 119.928 251.307 117.293 254.604C112.406 260.656 107.895 263.006 103.383 263.006C98.8534 263.006 94.3609 260.656 89.4925 254.66C86.7793 251.263 84.529 247.521 82.8008 243.532C81.0392 238.936 78.1052 234.882 74.2906 231.771C70.4759 228.661 65.9135 226.603 61.057 225.803C56.2005 225.003 51.2191 225.488 46.6082 227.21C41.9972 228.932 37.9174 231.831 34.7744 235.619L0.902258 163.626C0.321868 162.39 0.017945 161.042 0.011652 159.676C0.00535903 158.31 0.296846 156.959 0.865818 155.718C1.43479 154.476 2.26757 153.373 3.30618 152.486C4.34479 151.599 5.56426 150.949 6.8797 150.581L37.594 142.01V65.6564C37.594 63.1638 38.5842 60.7732 40.3467 59.0107C42.1093 57.2481 44.4998 56.2579 46.9925 56.2579H93.985V9.9985ZM187.97 19.397H112.782V56.2391H187.97V19.397ZM244.361 136.784V75.0549H56.391V136.765L135.15 114.811C145.056 112.05 155.527 112.05 165.432 114.811L244.361 136.784ZM176.673 243.307L176.711 243.382V243.438L176.673 243.307ZM253.534 251.54L253.477 251.352C252.992 249.408 251.898 247.671 250.355 246.393C248.812 245.115 246.901 244.363 244.901 244.248C242.901 244.132 240.916 244.659 239.236 245.751C237.557 246.843 236.27 248.443 235.564 250.318L235.47 250.506L235.094 251.465C232.699 256.853 229.616 261.908 225.921 266.502C219.192 274.773 209.85 281.803 197.368 281.803C184.887 281.803 175.526 274.754 168.759 266.465C164.838 261.603 161.6 256.227 159.135 250.487L159.041 250.28C158.359 248.499 157.152 246.968 155.578 245.89C154.005 244.811 152.141 244.237 150.234 244.243C148.327 244.249 146.467 244.836 144.901 245.924C143.335 247.012 142.137 248.551 141.466 250.337L141.372 250.525L140.996 251.483C138.615 256.865 135.544 261.913 131.861 266.502C125.169 274.773 115.865 281.803 103.383 281.803C90.9023 281.803 81.5789 274.754 74.8496 266.483C70.9376 261.622 67.712 256.246 65.2632 250.506L65.188 250.318C64.4819 248.443 63.1951 246.824 61.5155 245.732C59.8358 244.64 57.8512 244.113 55.851 244.229C53.8509 244.344 51.94 245.096 50.3971 246.374C48.8543 247.652 47.7602 249.389 47.2744 251.333L47.2368 251.483L46.9737 252.348C45.2574 257.523 42.7255 262.39 39.4737 266.765C33.703 274.472 24.5113 281.803 9.3985 281.803C6.90586 281.803 4.51532 282.793 2.75276 284.556C0.990198 286.318 0 288.709 0 291.202C0 293.694 0.990198 296.085 2.75276 297.847C4.51532 299.61 6.90586 300.6 9.3985 300.6C31.8797 300.6 46.1842 289.171 54.5113 278.044C55.4511 276.784 56.3534 275.506 57.1429 274.265C58.1015 275.6 59.1353 276.972 60.2632 278.344C68.797 288.871 82.9699 300.6 103.383 300.6C123.797 300.6 137.932 288.833 146.466 278.307C147.815 276.644 149.094 274.925 150.301 273.156C151.485 274.848 152.782 276.596 154.192 278.344C162.782 288.871 176.955 300.581 197.368 300.581C217.782 300.581 231.955 288.852 240.489 278.326C241.579 276.991 242.594 275.656 243.534 274.341C244.342 275.6 245.226 276.897 246.165 278.175C254.511 289.378 268.853 300.863 291.466 300.581C293.959 300.551 296.337 299.532 298.079 297.749C299.82 295.965 300.782 293.563 300.752 291.07C300.722 288.577 299.703 286.199 297.919 284.457C296.136 282.716 293.733 281.754 291.241 281.784C276.147 281.972 266.992 274.66 261.259 266.953C258.007 262.536 255.487 257.623 253.797 252.405L253.534 251.54Z" fill="black"/>
</svg>
