<svg width="49" height="48" viewBox="0 0 49 48" fill="none" xmlns="http://www.w3.org/2000/svg">
<rect width="48.1208" height="48" rx="24" fill="#47E2F8"/>
<path d="M18.7719 10.8772C18.7719 10.6445 18.8643 10.4214 19.0289 10.2569C19.1934 10.0924 19.4165 10 19.6491 10H28.4211C28.6537 10 28.8768 10.0924 29.0413 10.2569C29.2058 10.4214 29.2982 10.6445 29.2982 10.8772V15.193H33.6842C33.9169 15.193 34.14 15.2854 34.3045 15.4499C34.469 15.6144 34.5614 15.8375 34.5614 16.0702V23.2L37.4281 23.9982C37.5516 24.0326 37.6661 24.0935 37.7636 24.1769C37.861 24.2603 37.939 24.364 37.992 24.4807C38.045 24.5975 38.0718 24.7244 38.0704 24.8526C38.0691 24.9808 38.0397 25.1072 37.9842 25.2228L34.7825 31.8684C34.4826 31.5298 34.1004 31.2742 33.6729 31.1264C33.2453 30.9786 32.7869 30.9435 32.3419 31.0247C31.8969 31.1058 31.4803 31.3004 31.1325 31.5895C30.7846 31.8787 30.5172 32.2527 30.3561 32.6754L30.3386 32.7158C30.1796 33.0725 29.9756 33.4074 29.7316 33.7123C29.2772 34.2737 28.8579 34.4912 28.4333 34.4912C28.0123 34.4912 27.5877 34.2702 27.1246 33.7018C26.8679 33.3813 26.6544 33.0286 26.4895 32.6526C26.2968 32.1523 25.9558 31.7227 25.5122 31.4215C25.0687 31.1202 24.5437 30.9617 24.0075 30.967C23.4714 30.9724 22.9496 31.1413 22.5122 31.4514C22.0747 31.7614 21.7424 32.1977 21.5596 32.7018C21.3991 33.0615 21.1933 33.3993 20.9474 33.707C20.4912 34.2719 20.0702 34.4912 19.6491 34.4912C19.2263 34.4912 18.807 34.2719 18.3526 33.7123C18.0994 33.3952 17.8894 33.046 17.7281 32.6737C17.5637 32.2447 17.2898 31.8663 16.9338 31.576C16.5778 31.2857 16.1519 31.0936 15.6987 31.0189C15.2454 30.9443 14.7804 30.9895 14.3501 31.1502C13.9197 31.311 13.539 31.5816 13.2456 31.9351L10.0842 25.2158C10.03 25.1004 10.0017 24.9746 10.0011 24.8471C10.0005 24.7196 10.0277 24.5935 10.0808 24.4776C10.1339 24.3617 10.2116 24.2588 10.3086 24.176C10.4055 24.0932 10.5193 24.0326 10.6421 23.9982L13.5088 23.1982V16.0719C13.5088 15.8393 13.6012 15.6162 13.7657 15.4517C13.9302 15.2872 14.1533 15.1947 14.386 15.1947H18.7719V10.8772ZM27.5439 11.7544H20.5263V15.193H27.5439V11.7544ZM32.807 22.7105V16.9491H15.2632V22.7088L22.614 20.6596C23.5385 20.402 24.5159 20.402 25.4404 20.6596L32.807 22.7105ZM26.4895 32.6526L26.493 32.6596V32.6649L26.4895 32.6526ZM33.6632 33.4211L33.6579 33.4035C33.6126 33.2221 33.5104 33.0599 33.3664 32.9406C33.2224 32.8214 33.0441 32.7512 32.8574 32.7404C32.6707 32.7297 32.4855 32.7788 32.3287 32.8807C32.172 32.9827 32.0519 33.132 31.986 33.307L31.9772 33.3246L31.9421 33.414C31.7186 33.9169 31.4308 34.3887 31.086 34.8175C30.4579 35.5895 29.586 36.2456 28.4211 36.2456C27.2561 36.2456 26.3825 35.5877 25.7509 34.814C25.3848 34.3603 25.0826 33.8585 24.8526 33.3228L24.8439 33.3035C24.7802 33.1373 24.6675 32.9943 24.5207 32.8937C24.3738 32.7931 24.1999 32.7395 24.0219 32.74C23.8439 32.7406 23.6702 32.7953 23.5241 32.8969C23.3779 32.9985 23.2661 33.1421 23.2035 33.3088L23.1947 33.3263L23.1597 33.4158C22.9374 33.918 22.6508 34.3892 22.307 34.8175C21.6825 35.5895 20.814 36.2456 19.6491 36.2456C18.4842 36.2456 17.614 35.5877 16.986 34.8158C16.6208 34.362 16.3198 33.8603 16.0912 33.3246L16.0842 33.307C16.0183 33.132 15.8982 32.9809 15.7414 32.879C15.5847 32.7771 15.3994 32.7279 15.2128 32.7387C15.0261 32.7495 14.8477 32.8196 14.7037 32.9389C14.5597 33.0582 14.4576 33.2203 14.4123 33.4018L14.4088 33.4158L14.3842 33.4965C14.224 33.9794 13.9877 34.4337 13.6842 34.8421C13.1456 35.5614 12.2877 36.2456 10.8772 36.2456C10.6445 36.2456 10.4214 36.338 10.2569 36.5025C10.0924 36.667 10 36.8902 10 37.1228C10 37.3555 10.0924 37.5786 10.2569 37.7431C10.4214 37.9076 10.6445 38 10.8772 38C12.9754 38 14.3105 36.9333 15.0877 35.8947C15.1754 35.7772 15.2596 35.6579 15.3333 35.5421C15.4228 35.6667 15.5193 35.7947 15.6246 35.9228C16.4211 36.9053 17.7439 38 19.6491 38C21.5544 38 22.8737 36.9018 23.6702 35.9193C23.7961 35.7641 23.9155 35.6037 24.0281 35.4386C24.1386 35.5965 24.2597 35.7596 24.3912 35.9228C25.193 36.9053 26.5158 37.9982 28.4211 37.9982C30.3263 37.9982 31.6491 36.9035 32.4456 35.9211C32.5474 35.7965 32.6421 35.6719 32.7298 35.5491C32.8053 35.6667 32.8877 35.7877 32.9754 35.907C33.7544 36.9526 35.093 38.0246 37.2035 37.9982C37.4362 37.9955 37.6582 37.9004 37.8207 37.7339C37.9832 37.5674 38.073 37.3432 38.0702 37.1105C38.0674 36.8779 37.9723 36.6559 37.8058 36.4933C37.6393 36.3308 37.4151 36.2411 37.1825 36.2439C35.7737 36.2614 34.9193 35.5789 34.3842 34.8596C34.0806 34.4474 33.8454 33.9889 33.6877 33.5018L33.6632 33.4211Z" fill="black"/>
</svg>
